<svg aria-hidden="true" style="position:absolute;width:0;height:0;overflow:hidden" xmlns="http://www.w3.org/2000/svg"><defs><symbol id="icon-burger" viewBox="0 0 32 32"><path d="M.444 6.667c0-.859.697-1.556 1.556-1.556h28a1.556 1.556 0 0 1 0 3.112H2A1.556 1.556 0 0 1 .444 6.667zm0 9.382A1.556 1.556 0 0 1 2 14.494h28a1.556 1.556 0 0 1 .002 3.11H2a1.556 1.556 0 0 1-1.556-1.556zM2 23.877a1.556 1.556 0 0 0-.002 3.11H30l.046.001a1.556 1.556 0 0 0 0-3.112l-.048.001H30 2z"/></symbol><symbol id="icon-next" viewBox="0 0 32 32"><path d="M24.587 15.035 9.725.875c-.239-.228-.563-.368-.92-.368s-.681.14-.921.369h.001l-.016.016a1.224 1.224 0 0 0-.001 1.778l13.995 13.333L7.868 29.331a1.223 1.223 0 0 0 0 1.779h.001l.016.016c.239.228.563.368.92.368s.681-.14.921-.369h-.001l14.862-14.16c.255-.243.413-.586.413-.965s-.158-.722-.413-.965z"/></symbol><symbol id="icon-prev" viewBox="0 0 32 32"><path d="m7.413 16.965 14.862 14.16c.239.228.563.368.92.368s.681-.14.921-.369h-.001l.016-.016a1.223 1.223 0 0 0 0-1.779h-.001L10.135 15.996 24.13 2.669a1.223 1.223 0 0 0 0-1.779h-.001l-.016-.016c-.239-.228-.563-.368-.92-.368s-.681.14-.921.369h.001L7.411 15.035c-.255.243-.413.586-.413.965s.158.722.413.965z"/></symbol><symbol id="icon-rocket" viewBox="0 0 32 32"><path d="m7.233 13.633 3.534 1.5c.4-.8.827-1.588 1.283-2.366s.939-1.522 1.45-2.234L10.867 10l-3.634 3.633zm5.134 2.7 4.433 4.434a25.986 25.986 0 0 0 3.663-2.027l-.096.06c1.11-.733 2.01-1.444 2.7-2.133 1.8-1.8 3.122-3.645 3.966-5.534s1.3-4.022 1.367-6.4c-2.378.067-4.511.523-6.4 1.367s-3.733 2.167-5.533 3.967c-.69.689-1.4 1.589-2.134 2.7a25.405 25.405 0 0 0-1.899 3.404l-.067.162zm7.633-3.2c-.444-.444-.667-.994-.667-1.65 0-.655.223-1.205.667-1.65s.994-.666 1.65-.666 1.206.222 1.65.666c.444.445.667.995.667 1.65s-.223 1.206-.667 1.65c-.444.445-.994.667-1.65.667s-1.206-.222-1.65-.667zM19.5 25.9l3.633-3.633-.533-2.634c-.711.512-1.456.995-2.233 1.45A40.49 40.49 0 0 1 18 22.367l1.5 3.533zM30.367 2.767c.2 3.022-.178 5.777-1.134 8.266-.955 2.49-2.533 4.834-4.733 7.034l-.067.066-.066.067.733 3.667c.067.333.05.655-.05.966-.1.312-.272.59-.517.834l-5.7 5.733L16 22.8l-5.667-5.667-6.6-2.833 5.734-5.7c.244-.244.522-.417.833-.517s.633-.116.967-.05l3.666.734a.247.247 0 0 1 .066-.049L15 8.717a.26.26 0 0 0 .067-.05c2.2-2.2 4.544-3.784 7.033-4.75s5.244-1.35 8.267-1.15zm-24.4 18.4c.777-.778 1.727-1.173 2.85-1.184 1.122-.01 2.072.373 2.85 1.15.777.778 1.16 1.728 1.15 2.85-.011 1.123-.406 2.073-1.184 2.85-.577.578-1.472 1.056-2.683 1.434S5.922 29 3.5 29.333c.333-2.422.683-4.244 1.05-5.466s.839-2.123 1.417-2.7zm1.4 1.433c-.311.333-.59.856-.834 1.567S6.078 25.789 5.9 26.9c1.111-.178 2.022-.389 2.733-.633.711-.245 1.234-.523 1.567-.834.422-.377.639-.85.65-1.416l.001-.061a2.02 2.02 0 0 0-.584-1.423 2.021 2.021 0 0 0-1.423-.584l-.064.001h.003a1.87 1.87 0 0 0-1.414.648l-.002.002z"/></symbol><symbol id="icon-star" viewBox="0 0 32 32"><path d="M14.513 1.918c.55-1.303 2.424-1.303 2.974 0L20.732 9.6c.232.548.757.922 1.359.971l8.425.664c1.427.113 2.007 1.865.919 2.784l-6.419 5.414a1.57 1.57 0 0 0-.517 1.582l-.002-.011 1.961 8.094c.331 1.37-1.184 2.455-2.406 1.72l-7.213-4.339c-.24-.146-.529-.233-.84-.233s-.6.086-.847.237l.007-.004-7.213 4.339c-1.224.734-2.737-.35-2.406-1.72l1.961-8.094a1.57 1.57 0 0 0-.517-1.57l-.002-.002L.563 14.02c-1.088-.919-.508-2.673.919-2.786l8.425-.663a1.611 1.611 0 0 0 1.355-.961l.004-.01 3.245-7.684z"/></symbol><symbol id="icon-touch" viewBox="0 0 32 32"><path d="M15.5 1.333c2.022 0 3.75.706 5.183 2.117 1.434 1.411 2.15 3.128 2.15 5.15a7.34 7.34 0 0 1-.75 3.267 7.43 7.43 0 0 1-2.099 2.588l-.017.012h-1.134V12.8a5.184 5.184 0 0 0 1.471-1.836l.013-.031c.326-.676.516-1.47.516-2.309v-.026.001c0-1.467-.522-2.711-1.566-3.733-1.045-1.023-2.3-1.534-3.767-1.534s-2.722.511-3.767 1.534c-1.043 1.022-1.566 2.266-1.566 3.733 0 .822.172 1.6.516 2.333a5.19 5.19 0 0 0 1.473 1.859l.011.008v2.4a7.305 7.305 0 0 1-2.916-2.701l-.018-.032a7.261 7.261 0 0 1-1.066-3.81v-.06.003c0-2.022.716-3.739 2.15-5.15 1.433-1.411 3.16-2.117 5.183-2.117zm-1.267 28c-.377 0-.733-.072-1.066-.216a2.764 2.764 0 0 1-.867-.584l-6.867-6.866L7.3 19.733c.311-.31.661-.55 1.05-.716a1.819 1.819 0 0 1 1.23-.081l-.013-.003 2.6.6V8.667c0-.934.322-1.723.966-2.367s1.434-.967 2.367-.967 1.722.323 2.367.967c.644.644.966 1.433.966 2.367V14.4h.867c.111 0 .211.022.3.067s.189.088.3.133l4.933 2.4c.534.244.928.639 1.184 1.183.255.545.327 1.106.216 1.684l-1.2 7.266a2.522 2.522 0 0 1-.928 1.58l-.005.004a2.68 2.68 0 0 1-1.714.616H14.233zm-.266-2h9.366l1.434-8.3-6.1-3.033h-1.834V8.667c0-.4-.122-.723-.366-.967-.245-.244-.567-.367-.967-.367s-.722.123-.967.367c-.244.244-.366.567-.366.967v13.3l-5.134-1.1-.766.766 5.7 5.7zm9.366 0z"/></symbol></defs></svg>