<svg aria-hidden="true" style="position:absolute;width:0;height:0;overflow:hidden" xmlns="http://www.w3.org/2000/svg"><defs><symbol id="icon-touch" viewBox="0 0 24 32"><path d="M11.586.367c2.232 0 4.138.779 5.72 2.336 1.581 1.557 2.372 3.452 2.372 5.683a8.095 8.095 0 0 1-.828 3.605 8.193 8.193 0 0 1-2.318 2.855l-.018.014h-1.25v-1.839a5.721 5.721 0 0 0 1.622-2.026l.015-.034c.36-.747.571-1.623.571-2.549v-.026.001c0-1.619-.577-2.991-1.729-4.119-1.152-1.129-2.538-1.693-4.157-1.693-1.618 0-3.004.564-4.156 1.693-1.153 1.128-1.729 2.5-1.729 4.119 0 .907.19 1.766.57 2.574a5.714 5.714 0 0 0 1.625 2.051l.012.009v2.648a8.066 8.066 0 0 1-3.216-2.98l-.02-.035a8.021 8.021 0 0 1-1.178-4.206v-.064.003c0-2.231.791-4.126 2.372-5.683S9.354.368 11.585.368zm-1.397 30.897a2.93 2.93 0 0 1-1.177-.238 3.078 3.078 0 0 1-.957-.645L.479 22.805l2.059-2.134a3.67 3.67 0 0 1 1.159-.79 2.033 2.033 0 0 1 1.357-.09l-.014-.003 2.869.662V8.46c0-1.031.355-1.901 1.067-2.612.711-.711 1.581-1.067 2.611-1.067 1.031 0 1.901.356 2.612 1.067s1.067 1.581 1.067 2.612v6.326h.956a.72.72 0 0 1 .331.074c.099.049.21.097.331.147l5.444 2.648a2.605 2.605 0 0 1 1.305 1.305c.281.601.362 1.22.239 1.858l-1.324 8.018a2.777 2.777 0 0 1-1.025 1.743l-.006.005c-.51.423-1.17.68-1.891.68h-9.437zm-.294-2.207h10.336l1.581-9.159-6.731-3.347h-2.023V8.459c0-.441-.136-.798-.405-1.067-.27-.269-.626-.405-1.067-.405s-.797.136-1.066.405c-.27.269-.405.626-.405 1.067v14.676l-5.664-1.214-.846.845 6.29 6.29zm10.336 0z"/></symbol><symbol id="icon-rocket" viewBox="0 0 32 32"><path d="m4.838 13.295 4.039 1.714c.457-.914.945-1.815 1.466-2.704S11.416 10.564 12 9.752l-3.009-.609-4.153 4.152zm5.867 3.086 5.066 5.067a29.78 29.78 0 0 0 4.187-2.317l-.11.069c1.269-.838 2.297-1.65 3.086-2.438 2.057-2.057 3.568-4.166 4.533-6.325.966-2.159 1.486-4.597 1.562-7.314-2.718.077-5.155.598-7.314 1.562s-4.266 2.477-6.323 4.534c-.789.787-1.6 1.816-2.439 3.086a29.08 29.08 0 0 0-2.17 3.89l-.077.185zm8.724-3.658c-.507-.507-.762-1.136-.762-1.886 0-.749.255-1.377.762-1.886.507-.507 1.136-.761 1.886-.761s1.378.254 1.886.761c.507.509.762 1.137.762 1.886 0 .75-.255 1.378-.762 1.886-.507.509-1.136.762-1.886.762s-1.378-.254-1.886-.762zm-.572 14.591 4.152-4.152-.609-3.01a32.38 32.38 0 0 1-2.552 1.657 46.309 46.309 0 0 1-2.705 1.467l1.714 4.038zM31.277.877c.229 3.454-.203 6.602-1.296 9.447-1.091 2.846-2.895 5.525-5.409 8.039l-.077.075-.075.077.838 4.191c.077.381.057.749-.057 1.104a2.334 2.334 0 0 1-.591.953l-6.514 6.552-3.238-7.543-6.477-6.477-7.543-3.238 6.553-6.514c.279-.279.597-.477.952-.591s.723-.133 1.105-.057l4.19.839a.294.294 0 0 1 .075-.056l.002-.001a.315.315 0 0 0 .076-.057c2.514-2.514 5.193-4.325 8.038-5.429C24.674 1.086 27.822.648 31.277.877zM3.391 21.905c.888-.889 1.974-1.341 3.257-1.353 1.282-.011 2.368.426 3.257 1.314.888.889 1.326 1.975 1.314 3.257-.013 1.283-.464 2.369-1.353 3.257-.659.661-1.682 1.207-3.066 1.639s-3.461.838-6.229 1.218c.381-2.768.781-4.85 1.2-6.247.419-1.398.959-2.426 1.619-3.086zm1.6 1.638c-.355.381-.674.978-.953 1.791-.279.811-.52 1.854-.723 3.123 1.27-.203 2.311-.445 3.123-.723.813-.28 1.41-.598 1.791-.953.482-.431.73-.971.743-1.618l.001-.07a2.31 2.31 0 0 0-.668-1.627 2.305 2.305 0 0 0-1.626-.667l-.073.001h.004a2.138 2.138 0 0 0-1.616.74l-.002.003z"/></symbol><symbol id="icon-logo" viewBox="0 0 41 32"><path fill="#ffe550" style="fill:var(--color1, #ffe550)" d="M14.143 6.455c1.01-1.982 3.836-1.982 4.846 0l1.28 2.51a2.729 2.729 0 0 0 1.98 1.45l.016.002 2.772.442c2.196.35 3.07 3.049 1.497 4.625l-1.978 1.983a2.725 2.725 0 0 0-.763 2.372l-.002-.016.437 2.773c.346 2.2-1.94 3.868-3.92 2.858l-2.511-1.278c-.358-.186-.783-.296-1.232-.296s-.874.109-1.247.303l.015-.007-2.511 1.278c-1.98 1.009-4.267-.658-3.92-2.858l.437-2.773a2.725 2.725 0 0 0-.765-2.356l-1.978-1.983c-1.572-1.576-.698-4.276 1.497-4.625l2.772-.441a2.73 2.73 0 0 0 1.989-1.438l.007-.015 1.28-2.51z"/><path fill="#2c2c2c" style="fill:var(--color2, #2c2c2c)" d="m1.116 20.357-.021.005a76.868 76.868 0 0 0-.013 1.932c0 .157-.004.285-.01.384l.001.336c0 .104-.007.207-.021.308l.001-.012-.018.206c-.014.13-.042.201-.084.211-.092.022-.235-.049-.431-.212-.197-.17-.31-.319-.34-.447s-.038-1.06-.023-2.798c.021-1.74-.026-2.884-.14-3.433a.412.412 0 0 1 .014-.274l-.001.003c.036-.166.219-.321.55-.467.338-.147.843-.3 1.514-.459.678-.16 1.216-.25 1.614-.27.405-.021.623.032.652.16.021.085-.025.159-.137.223s-.211.117-.298.16c.121-.039.006.008-.109.054l-.239.085c-.145.049-.279.096-.403.14-.126.037-.288.09-.488.16-.193.068-.372.133-.536.194-.166.054-.39.133-.671.237s-.463.17-.546.197c.012.02.023.05.033.093.079.332.122 1.13.129 2.392a10.72 10.72 0 0 0 1.402-.366c.498-.162.804-.257.917-.284.269-.063.416-.039.443.074.052.22-.212.476-.791.77a8.607 8.607 0 0 1-1.95.697zm6.917-1.951a2.018 2.018 0 0 0-.282-.66l.005.008c-.13-.201-.281-.334-.452-.398-.455.25-.786.729-.992 1.435-.201.698-.236 1.319-.108 1.865s.343.854.644.924c.485-.219.834-.668 1.046-1.346.218-.687.265-1.297.139-1.828zm-2.764.755c.117-.611.33-1.14.642-1.588.318-.457.684-.734 1.102-.833.423-.1.819-.003 1.187.291.366.287.61.689.732 1.206.121.51.121 1.063.001 1.66a3.783 3.783 0 0 1-.72 1.58l.006-.009c-.349.449-.767.731-1.254.846-.361.086-.7-.01-1.019-.286s-.538-.669-.658-1.179c-.123-.517-.129-1.08-.019-1.689zm7.564-1.891a2.018 2.018 0 0 0-.282-.66l.005.008c-.129-.201-.281-.334-.452-.398-.455.25-.786.728-.992 1.434-.201.698-.236 1.32-.107 1.865.129.546.343.854.643.925.486-.22.834-.668 1.047-1.347.218-.687.265-1.296.138-1.828zm-2.763.755a4.1 4.1 0 0 1 .642-1.588c.318-.457.684-.734 1.102-.833.423-.1.82-.004 1.188.291.366.287.61.689.732 1.206.121.51.121 1.063.001 1.66a3.78 3.78 0 0 1-.72 1.579l.006-.009c-.349.449-.767.731-1.254.847-.361.085-.7-.01-1.018-.286s-.538-.669-.659-1.178c-.122-.517-.129-1.08-.019-1.689zm7.769-6.987c.113-.027.276.047.489.221.218.165.349.34.392.524s.079.729.107 1.634c.026.898.031 1.836.015 2.812-.02 2.188-.111 3.301-.273 3.34-.098.023-.223-.011-.371-.103-.143-.101-.226-.197-.247-.289s-.041-.282-.057-.57c-.524.872-1.045 1.369-1.561 1.491-.311.074-.626-.001-.948-.225-.314-.225-.508-.489-.579-.794-.105-.439-.111-.986-.02-1.644a5.612 5.612 0 0 1 .651-1.929l-.015.028c.327-.601.742-.961 1.243-1.079.502-.119.923.099 1.263.654.006-1.586-.077-2.818-.247-3.698-.05-.212.002-.337.158-.374zm.068 5.49c-.091-.382-.234-.689-.431-.919-.188-.232-.375-.326-.559-.282-.303.072-.57.333-.799.783a4.554 4.554 0 0 0-.454 1.452l-.003.024c-.07.525-.063.964.021 1.318a.398.398 0 0 0 .208.275l.002.001a.493.493 0 0 0 .359.038l-.004.001c.276-.065.599-.351.972-.858a3.581 3.581 0 0 0 .696-1.646l.002-.135-.012-.052zm6.764-.636c.137.581-.009 1.131-.438 1.652a3.021 3.021 0 0 1-1.663 1.01c-.671.159-1.266.117-1.786-.127-.522-.25-.819-.532-.892-.843-.051-.212-.012-.334.115-.364.113-.027.375.09.788.352.156.09.352.163.589.219.244.055.486.054.726-.004a2.37 2.37 0 0 0 1.223-.693c.329-.347.457-.669.387-.966-.045-.191-.23-.406-.554-.643a7.357 7.357 0 0 0-1.004-.619l-.042-.02a8.232 8.232 0 0 1-1.061-.677l.021.015c-.326-.244-.511-.455-.553-.632a1.669 1.669 0 0 1-.027-.596l-.001.009c.024-.215.068-.378.13-.49.203-.37.564-.751 1.083-1.143.526-.394.987-.638 1.383-.731a.738.738 0 0 1 .57.081l-.003-.002c.174.101.278.226.313.374.017.071-.044.145-.182.223s-.351.188-.638.33a5.125 5.125 0 0 0-.757.433l.017-.011c-.738.505-1.074.901-1.005 1.191.037.156.553.494 1.548 1.013.414.221.77.474 1.091.767l-.004-.004c.346.3.555.598.625.895zm2.433.534c.032.135.126.183.281.147.268-.064.575-.215.922-.454.351-.247.548-.377.591-.386.127-.03.207.022.239.156.048.206-.108.493-.468.862-.353.368-.703.593-1.049.674-.339.08-.644.055-.913-.075-.271-.138-.43-.306-.477-.505a2.988 2.988 0 0 1-.051-.783c.011-.332.035-.767.071-1.307.042-.548.07-1 .082-1.354-.314.156-.527.248-.64.274s-.239-.003-.379-.09c-.134-.095-.214-.196-.239-.302-.04-.17.381-.442 1.262-.815a7.711 7.711 0 0 0-.178-1.606c-.05-.212-.005-.335.137-.369.12-.028.287.015.5.129.212.106.34.255.385.447s.065.542.058 1.052c.394-.131.711-.225.951-.281.425-.101.658-.058.702.126.025.106-.071.222-.287.348-.209.124-.663.348-1.363.67-.016.594-.052 1.28-.107 2.055-.057.769-.067 1.231-.03 1.386zm4.735-5.562c.318-.075.649.018.995.281.343.255.546.513.608.775.06.255.034.538-.079.849.11.086.174.167.193.246.047.198.081.549.103 1.052.03.502.051.829.065.983.021.152.036.276.043.371.006.089.009.177.007.268.014.183-.029.287-.128.311-.127.03-.258-.055-.396-.254a3.191 3.191 0 0 1-.343-.838c-.44.949-.928 1.487-1.465 1.614-.325.077-.679.015-1.062-.186-.378-.209-.602-.463-.672-.761-.1-.425-.069-.986.095-1.682.173-.744.452-1.4.826-1.99l-.015.026c.379-.606.788-.96 1.225-1.065zm.929 1.754c-.156-.658-.364-.957-.626-.895-.275.065-.55.34-.823.823a5.777 5.777 0 0 0-.61 1.508l-.009.041c-.137.556-.171.979-.103 1.27a.373.373 0 0 0 .217.261l.002.001a.6.6 0 0 0 .374.023c.332-.079.654-.39.965-.935a3.83 3.83 0 0 0 .48-1.852c-.004-.111.041-.189.135-.234l-.002-.01z"/><path fill="#bbf330" style="fill:var(--color3, #bbf330)" d="M30.759 19.973a.913.913 0 0 0-.641.602c-1.906 5.649-7.244 9.719-13.535 9.719-3.815 0-7.28-1.496-9.841-3.934a.91.91 0 0 0-.852-.231l.006-.001c-.639.158-.88.935-.406 1.392a15.864 15.864 0 0 0 11.072 4.481h.021-.001c7.078 0 13.081-4.606 15.182-10.986.206-.626-.368-1.199-1.006-1.041zM1.866 14.15a.908.908 0 0 0 .664-.719l.001-.005C3.742 6.761 9.57 1.706 16.582 1.706a14.25 14.25 0 0 1 11.232 5.465.903.903 0 0 0 .923.328c.583-.145.847-.825.478-1.301C26.291 2.428 21.72 0 16.581 0 8.7 0 2.151 5.711.839 13.225c-.103.593.445 1.07 1.028.926zm38.749-8.818c-3.777 7.241-5.435 2.465-10.753 5.27.532-8.405 6.163-3.291 10.753-5.27z"/></symbol><symbol id="icon-cross" viewBox="0 0 32 32"><path d="M19.141 16.123 29.818 5.456a2.195 2.195 0 0 0-3.101-3.094l.002-.002-10.675 10.56L5.297 2.181a2.197 2.197 0 0 0-3.093 3.096l-.003-.003 10.72 10.845L2.422 26.482a2.191 2.191 0 0 0 2.399 3.64l-.012.006c.28-.138.517-.323.71-.546l.002-.003L15.998 19.11l10.413 10.403a2.2 2.2 0 0 0 3.093-3.097l.003.004-10.368-10.296z"/></symbol><symbol id="icon-burger" viewBox="0 0 32 32"><path d="M.444 6.667c0-.859.697-1.556 1.556-1.556h28a1.556 1.556 0 0 1 0 3.112H2A1.556 1.556 0 0 1 .444 6.667zm0 9.382A1.556 1.556 0 0 1 2 14.494h28a1.556 1.556 0 0 1 .002 3.11H2a1.556 1.556 0 0 1-1.556-1.556zM2 23.877a1.556 1.556 0 0 0-.002 3.11H30l.046.001a1.556 1.556 0 0 0 0-3.112l-.048.001H30 2z"/></symbol><symbol id="icon-next" viewBox="0 0 32 32"><path d="M24.587 15.035 9.725.875c-.239-.228-.563-.368-.92-.368s-.681.14-.921.369h.001l-.016.016a1.224 1.224 0 0 0-.001 1.778l13.995 13.333L7.868 29.331a1.223 1.223 0 0 0 0 1.779h.001l.016.016c.239.228.563.368.92.368s.681-.14.921-.369h-.001l14.862-14.16c.255-.243.413-.586.413-.965s-.158-.722-.413-.965z"/></symbol><symbol id="icon-prev" viewBox="0 0 32 32"><path d="m7.413 16.965 14.862 14.16c.239.228.563.368.92.368s.681-.14.921-.369h-.001l.016-.016a1.223 1.223 0 0 0 0-1.779h-.001L10.135 15.996 24.13 2.669a1.223 1.223 0 0 0 0-1.779h-.001l-.016-.016c-.239-.228-.563-.368-.92-.368s-.681.14-.921.369h.001L7.411 15.035c-.255.243-.413.586-.413.965s.158.722.413.965z"/></symbol><symbol id="icon-star" viewBox="0 0 32 32"><path d="M14.513 1.918c.55-1.303 2.424-1.303 2.974 0L20.732 9.6c.232.548.757.922 1.359.971l8.425.664c1.427.113 2.007 1.865.919 2.784l-6.419 5.414a1.57 1.57 0 0 0-.517 1.582l-.002-.011 1.961 8.094c.331 1.37-1.184 2.455-2.406 1.72l-7.213-4.339c-.24-.146-.529-.233-.84-.233s-.6.086-.847.237l.007-.004-7.213 4.339c-1.224.734-2.737-.35-2.406-1.72l1.961-8.094a1.57 1.57 0 0 0-.517-1.57l-.002-.002L.563 14.02c-1.088-.919-.508-2.673.919-2.786l8.425-.663a1.611 1.611 0 0 0 1.355-.961l.004-.01 3.245-7.684z"/></symbol></defs></svg>